<svg width="162" height="44" viewBox="0 0 162 44" fill="none" xmlns="http://www.w3.org/2000/svg">
<g filter="url(#filter0_d_0_1)">
<path d="M52.4375 4.79991H46.1875L45.4883 3.72665C45.2288 3.32801 44.8298 2.99273 44.3362 2.7584C43.8425 2.52407 43.2737 2.39993 42.6934 2.3999H37.457L34.793 0.353895C33.8076 -0.402108 32.125 0.133394 32.125 1.20215V12.4402L44.625 15.8684V13.1999H47.75C51.2021 13.1999 54 11.0512 54 8.39992V5.99991C54 5.33691 53.3008 4.79991 52.4375 4.79991ZM41.5 8.39992C40.6367 8.39992 39.9375 7.86292 39.9375 7.19992C39.9375 6.53691 40.6367 5.99991 41.5 5.99991C42.3633 5.99991 43.0625 6.53691 43.0625 7.19992C43.0625 7.86292 42.3633 8.39992 41.5 8.39992ZM13.375 14.3999C11.6523 14.3999 10.25 13.3229 10.25 11.9999C10.25 10.6747 8.85059 9.59992 7.125 9.59992C5.39941 9.59992 4 10.6747 4 11.9999C4 15.1244 6.62012 17.7637 10.25 18.7575V34.8C10.25 35.463 10.9492 36 11.8125 36H18.0625C18.9258 36 19.625 35.463 19.625 34.8V26.4H35.25V34.8C35.25 35.463 35.9492 36 36.8125 36H43.0625C43.9258 36 44.625 35.463 44.625 34.8V18.4162L29.9814 14.3999H13.375Z" fill="white"/>
<path d="M45.7686 5.07284L45.9165 5.29991H46.1875H52.4375C52.7687 5.29991 53.05 5.40347 53.2379 5.54783C53.4253 5.69176 53.5 5.85589 53.5 5.99991V8.39992C53.5 9.53798 52.9008 10.6021 51.865 11.3976C50.8287 12.1935 49.3756 12.6999 47.75 12.6999H44.625H44.125V13.1999V15.2128L32.625 12.0588V1.20215C32.625 0.970097 32.8109 0.707032 33.241 0.570217C33.6594 0.437133 34.149 0.49017 34.4884 0.750442C34.4885 0.750491 34.4885 0.750539 34.4886 0.750588L37.1525 2.79645L37.2872 2.8999H37.457H42.6933C43.2042 2.89993 43.6992 3.00952 44.1218 3.21009C44.5447 3.41083 44.8672 3.68913 45.0692 3.99944L45.0693 3.99959L45.7686 5.07284ZM10.75 18.7575V18.3759L10.382 18.2752C6.87903 17.3162 4.5 14.8175 4.5 11.9999C4.5 11.525 4.74955 11.0608 5.21995 10.6995C5.69086 10.3378 6.36278 10.0999 7.125 10.0999C7.88722 10.0999 8.55914 10.3378 9.03005 10.6995C9.50045 11.0608 9.75 11.525 9.75 11.9999C9.75 12.8496 10.2014 13.5853 10.862 14.0926C11.5222 14.5997 12.4127 14.8999 13.375 14.8999H29.9141L44.125 18.7975V34.8C44.125 34.944 44.0503 35.1082 43.8629 35.2521C43.675 35.3964 43.3937 35.5 43.0625 35.5H36.8125C36.4813 35.5 36.2 35.3964 36.0121 35.2521C35.8247 35.1082 35.75 34.944 35.75 34.8V26.4V25.9H35.25H19.625H19.125V26.4V34.8C19.125 34.944 19.0503 35.1082 18.8629 35.2521C18.675 35.3964 18.3937 35.5 18.0625 35.5H11.8125C11.4813 35.5 11.2 35.3964 11.0121 35.2521C10.8247 35.1082 10.75 34.944 10.75 34.8V18.7575ZM39.4375 7.19992C39.4375 7.71889 39.7124 8.15477 40.0905 8.44509C40.4679 8.73498 40.9679 8.89992 41.5 8.89992C42.0321 8.89992 42.5321 8.73498 42.9095 8.44509C43.2876 8.15477 43.5625 7.71889 43.5625 7.19992C43.5625 6.68094 43.2876 6.24506 42.9095 5.95474C42.5321 5.66486 42.0321 5.49991 41.5 5.49991C40.9679 5.49991 40.4679 5.66486 40.0905 5.95474C39.7124 6.24506 39.4375 6.68094 39.4375 7.19992Z" stroke="white"/>
</g>
<path d="M73.5159 27.264L70.8279 27.024L71.4199 16.032C71.1425 16.096 70.8865 16.1707 70.6519 16.256L70.1719 13.536C70.7372 13.4187 71.4359 13.296 72.2679 13.168C73.0999 13.04 73.9585 12.976 74.8439 12.976C75.5265 12.976 76.2199 13.0507 76.9239 13.2C77.6279 13.3387 78.2999 13.5733 78.9399 13.904C79.5905 14.224 80.1665 14.656 80.6679 15.2C81.1799 15.744 81.5799 16.4107 81.8679 17.2C82.1665 17.9893 82.3159 18.9227 82.3159 20C82.3159 21.5147 82.0705 22.8107 81.5799 23.888C81.0999 24.9547 80.3959 25.7707 79.4679 26.336C78.5505 26.9013 77.4412 27.184 76.1399 27.184C75.2759 27.184 74.4225 27.024 73.5799 26.704C73.5585 26.9173 73.5372 27.104 73.5159 27.264ZM74.7319 15.664C74.5825 15.664 74.4279 15.664 74.2679 15.664C74.1612 17.648 74.0652 19.3387 73.9799 20.736C73.8945 22.1227 73.8199 23.28 73.7559 24.208C74.0759 24.3147 74.4279 24.4107 74.8119 24.496C75.2065 24.5707 75.6172 24.608 76.0439 24.608C76.9079 24.608 77.6012 24.3893 78.1239 23.952C78.6572 23.5147 79.0412 22.9387 79.2759 22.224C79.5105 21.4987 79.6279 20.7147 79.6279 19.872C79.6279 19.2 79.5265 18.6293 79.3239 18.16C79.1212 17.6907 78.8545 17.3013 78.5239 16.992C78.2039 16.6827 77.8519 16.4427 77.4679 16.272C77.0839 16.0907 76.7052 15.9573 76.3319 15.872C75.9692 15.7867 75.6439 15.7333 75.3559 15.712C75.0679 15.68 74.8599 15.664 74.7319 15.664ZM83.6259 27.248C83.6685 26.3627 83.7005 25.4773 83.7219 24.592C83.7432 23.7067 83.7539 22.832 83.7539 21.968C83.7432 21.1787 83.7272 20.4 83.7059 19.632C83.6952 18.8533 83.6685 18.1013 83.6259 17.376L86.3139 17.296C86.3245 17.6907 86.3405 18.096 86.3619 18.512C86.7032 18.0853 87.0979 17.744 87.5459 17.488C88.0045 17.2213 88.5272 17.088 89.1139 17.088C89.3379 17.088 89.6259 17.12 89.9779 17.184C90.3299 17.248 90.6872 17.3707 91.0499 17.552L90.7459 20.256C90.4792 20.096 90.1912 19.984 89.8819 19.92C89.5832 19.8453 89.3325 19.808 89.1299 19.808C88.4472 19.808 87.8659 20.1173 87.3859 20.736C86.9165 21.344 86.5965 22.192 86.4259 23.28C86.4259 24.0267 86.4152 24.7413 86.3939 25.424C86.3832 26.096 86.3565 26.704 86.3139 27.248H83.6259ZM96.5375 27.28C95.5135 27.28 94.6122 27.0773 93.8335 26.672C93.0655 26.2773 92.4628 25.7227 92.0255 25.008C91.5988 24.2933 91.3855 23.4667 91.3855 22.528C91.3855 21.9627 91.4815 21.3707 91.6735 20.752C91.8655 20.1227 92.1748 19.536 92.6015 18.992C93.0282 18.448 93.5882 18.0053 94.2815 17.664C94.9855 17.3227 95.8388 17.152 96.8415 17.152C97.5668 17.152 98.1748 17.232 98.6655 17.392C99.1668 17.552 99.5722 17.76 99.8815 18.016C100.202 18.272 100.442 18.544 100.602 18.832C100.772 19.12 100.884 19.3973 100.938 19.664C101.002 19.92 101.034 20.1333 101.034 20.304C101.034 21.3387 100.596 22.1387 99.7215 22.704C98.8575 23.2587 97.6308 23.536 96.0415 23.536C95.6788 23.536 95.3322 23.52 95.0015 23.488C94.6815 23.456 94.3828 23.4187 94.1055 23.376C94.3082 23.9093 94.6442 24.304 95.1135 24.56C95.5828 24.8053 96.0682 24.928 96.5695 24.928C97.2948 24.928 97.9348 24.8 98.4895 24.544C99.0442 24.2773 99.5668 23.872 100.058 23.328L101.482 25.376C101.14 25.6533 100.756 25.9413 100.33 26.24C99.9135 26.5387 99.4015 26.784 98.7935 26.976C98.1855 27.1787 97.4335 27.28 96.5375 27.28ZM96.8895 19.552C96.2602 19.552 95.7055 19.712 95.2255 20.032C94.7455 20.352 94.3935 20.7733 94.1695 21.296C94.4362 21.3387 94.6975 21.376 94.9535 21.408C95.2202 21.4293 95.4815 21.44 95.7375 21.44C95.9722 21.44 96.2388 21.4187 96.5375 21.376C96.8468 21.3333 97.1455 21.2693 97.4335 21.184C97.7322 21.0987 97.9775 20.992 98.1695 20.864C98.3615 20.7253 98.4575 20.5653 98.4575 20.384C98.4575 20.2987 98.4148 20.192 98.3295 20.064C98.2442 19.936 98.0895 19.8187 97.8655 19.712C97.6415 19.6053 97.3162 19.552 96.8895 19.552ZM106.737 27.264C105.937 27.264 105.212 27.056 104.561 26.64C103.91 26.2347 103.393 25.6853 103.009 24.992C102.636 24.288 102.449 23.504 102.449 22.64C102.449 21.8293 102.598 21.0987 102.897 20.448C103.196 19.7867 103.601 19.2213 104.113 18.752C104.636 18.2827 105.228 17.9253 105.889 17.68C106.55 17.424 107.244 17.296 107.969 17.296C108.577 17.296 109.174 17.3813 109.761 17.552C109.804 17.328 109.841 17.104 109.873 16.88L112.609 17.344C112.534 17.5467 112.46 17.8507 112.385 18.256C112.31 18.6613 112.246 19.1147 112.193 19.616C112.15 20.1173 112.113 20.6187 112.081 21.12C112.049 21.6213 112.033 22.0747 112.033 22.48C112.033 22.8107 112.054 23.136 112.097 23.456C112.15 23.7653 112.257 24.0213 112.417 24.224C112.577 24.416 112.822 24.512 113.153 24.512H113.377L112.977 27.296C112.273 27.296 111.692 27.1733 111.233 26.928C110.774 26.6933 110.406 26.3733 110.129 25.968C109.67 26.48 109.148 26.8213 108.561 26.992C107.974 27.1733 107.366 27.264 106.737 27.264ZM105.073 22.96C105.126 23.472 105.334 23.8827 105.697 24.192C106.07 24.4907 106.54 24.64 107.105 24.64C107.649 24.64 108.102 24.496 108.465 24.208C108.828 23.9093 109.126 23.504 109.361 22.992C109.35 22.8213 109.345 22.6453 109.345 22.464C109.345 22.0907 109.356 21.7067 109.377 21.312C109.398 20.9173 109.425 20.528 109.457 20.144C109.009 19.9733 108.54 19.888 108.049 19.888C107.473 19.888 106.956 20.0053 106.497 20.24C106.049 20.464 105.697 20.7787 105.441 21.184C105.185 21.5893 105.057 22.0587 105.057 22.592C105.057 22.656 105.057 22.72 105.057 22.784C105.057 22.848 105.062 22.9067 105.073 22.96ZM114.377 27.248C114.367 27.088 114.356 26.8213 114.345 26.448C114.335 26.0853 114.324 25.648 114.313 25.136C114.303 24.624 114.297 24.0747 114.297 23.488C114.297 22.8907 114.297 22.2933 114.297 21.696C114.297 21.0347 114.297 20.4053 114.297 19.808C114.308 19.2107 114.313 18.6933 114.313 18.256C114.324 17.8187 114.329 17.504 114.329 17.312L117.033 17.264C117.012 17.5627 116.996 17.9253 116.985 18.352C117.263 17.9787 117.583 17.6853 117.945 17.472C118.308 17.2587 118.724 17.152 119.193 17.152C119.759 17.152 120.223 17.3173 120.585 17.648C120.959 17.9787 121.263 18.4107 121.497 18.944C122.265 17.7493 123.209 17.152 124.329 17.152C124.959 17.152 125.476 17.2907 125.881 17.568C126.297 17.8347 126.623 18.1973 126.857 18.656C127.092 19.1147 127.263 19.632 127.369 20.208C127.487 20.784 127.561 21.376 127.593 21.984C127.625 22.592 127.641 23.1787 127.641 23.744C127.641 24.416 127.631 25.0293 127.609 25.584C127.588 26.1387 127.583 26.6667 127.593 27.168H124.825C124.825 26.912 124.825 26.5867 124.825 26.192C124.825 25.808 124.825 25.4187 124.825 25.024C124.836 24.6187 124.841 24.272 124.841 23.984C124.841 23.6853 124.841 23.5093 124.841 23.456C124.841 22.816 124.825 22.2133 124.793 21.648C124.761 21.0827 124.681 20.624 124.553 20.272C124.425 19.92 124.217 19.744 123.929 19.744C123.652 19.744 123.407 19.8773 123.193 20.144C122.98 20.4107 122.788 20.7573 122.617 21.184C122.457 21.6107 122.319 22.064 122.201 22.544C122.223 22.96 122.239 23.376 122.249 23.792C122.26 24.1973 122.265 24.592 122.265 24.976C122.265 25.4133 122.26 25.792 122.249 26.112C122.249 26.4427 122.249 26.7947 122.249 27.168H119.561C119.561 26.304 119.556 25.5413 119.545 24.88C119.535 24.2187 119.513 23.5787 119.481 22.96C119.428 21.8507 119.311 21.04 119.129 20.528C118.959 20.0053 118.719 19.744 118.409 19.744C118.068 19.744 117.78 19.952 117.545 20.368C117.311 20.7733 117.119 21.2693 116.969 21.856C116.98 22.7093 117.001 23.6 117.033 24.528C117.065 25.456 117.108 26.352 117.161 27.216L114.377 27.248ZM130.33 27.072C130.319 26.7307 130.314 26.384 130.314 26.032C130.314 25.6907 130.314 25.3493 130.314 25.008C130.314 23.44 130.346 21.92 130.41 20.448C130.474 18.9653 130.548 17.552 130.634 16.208C130.207 16.3147 129.85 16.416 129.562 16.512L128.938 13.952C129.46 13.792 130.01 13.6533 130.586 13.536C131.172 13.408 131.743 13.3067 132.298 13.232C132.863 13.1467 133.38 13.088 133.85 13.056C134.33 13.0133 134.724 12.992 135.034 12.992C135.364 12.992 135.77 13.0187 136.25 13.072C136.74 13.1253 137.242 13.2373 137.754 13.408C138.276 13.568 138.762 13.8133 139.21 14.144C139.658 14.4747 140.02 14.9227 140.298 15.488C140.586 16.0427 140.73 16.7413 140.73 17.584C140.73 18.4587 140.538 19.1893 140.154 19.776C139.77 20.352 139.263 20.816 138.634 21.168C138.004 21.5093 137.311 21.7547 136.554 21.904C135.796 22.0533 135.05 22.128 134.314 22.128C133.844 22.128 133.396 22.1067 132.97 22.064C132.959 22.576 132.954 23.0827 132.954 23.584C132.954 24.2667 132.959 24.9013 132.97 25.488C132.98 26.064 133.002 26.5707 133.034 27.008L130.33 27.072ZM134.954 15.616C134.676 15.616 134.388 15.6267 134.09 15.648C133.802 15.6693 133.514 15.696 133.226 15.728C133.172 16.2933 133.13 16.9067 133.098 17.568C133.066 18.2293 133.039 18.9067 133.018 19.6C133.412 19.632 133.823 19.648 134.25 19.648C136.81 19.648 138.09 18.8907 138.09 17.376C138.09 16.7787 137.834 16.336 137.322 16.048C136.81 15.76 136.02 15.616 134.954 15.616ZM147.022 27.28C145.998 27.28 145.097 27.0773 144.318 26.672C143.55 26.2773 142.947 25.7227 142.51 25.008C142.083 24.2933 141.87 23.4667 141.87 22.528C141.87 21.9627 141.966 21.3707 142.158 20.752C142.35 20.1227 142.659 19.536 143.086 18.992C143.513 18.448 144.073 18.0053 144.766 17.664C145.47 17.3227 146.323 17.152 147.326 17.152C148.051 17.152 148.659 17.232 149.15 17.392C149.651 17.552 150.057 17.76 150.366 18.016C150.686 18.272 150.926 18.544 151.086 18.832C151.257 19.12 151.369 19.3973 151.422 19.664C151.486 19.92 151.518 20.1333 151.518 20.304C151.518 21.3387 151.081 22.1387 150.206 22.704C149.342 23.2587 148.115 23.536 146.526 23.536C146.163 23.536 145.817 23.52 145.486 23.488C145.166 23.456 144.867 23.4187 144.59 23.376C144.793 23.9093 145.129 24.304 145.598 24.56C146.067 24.8053 146.553 24.928 147.054 24.928C147.779 24.928 148.419 24.8 148.974 24.544C149.529 24.2773 150.051 23.872 150.542 23.328L151.966 25.376C151.625 25.6533 151.241 25.9413 150.814 26.24C150.398 26.5387 149.886 26.784 149.278 26.976C148.67 27.1787 147.918 27.28 147.022 27.28ZM147.374 19.552C146.745 19.552 146.19 19.712 145.71 20.032C145.23 20.352 144.878 20.7733 144.654 21.296C144.921 21.3387 145.182 21.376 145.438 21.408C145.705 21.4293 145.966 21.44 146.222 21.44C146.457 21.44 146.723 21.4187 147.022 21.376C147.331 21.3333 147.63 21.2693 147.918 21.184C148.217 21.0987 148.462 20.992 148.654 20.864C148.846 20.7253 148.942 20.5653 148.942 20.384C148.942 20.2987 148.899 20.192 148.814 20.064C148.729 19.936 148.574 19.8187 148.35 19.712C148.126 19.6053 147.801 19.552 147.374 19.552ZM158.006 27.264C157.366 27.264 156.859 27.1253 156.486 26.848C156.112 26.5813 155.84 26.208 155.67 25.728C155.499 25.248 155.387 24.6987 155.334 24.08C155.291 23.4613 155.27 22.8107 155.27 22.128C155.27 21.424 155.296 20.6933 155.35 19.936C154.635 20.032 153.947 20.1547 153.286 20.304L152.79 17.792C153.675 17.5573 154.619 17.3867 155.622 17.28C155.696 16.736 155.776 16.1653 155.862 15.568C155.947 14.96 156.043 14.32 156.15 13.648L158.902 13.888C158.774 14.4427 158.662 14.9973 158.566 15.552C158.47 16.096 158.384 16.624 158.31 17.136C158.907 17.136 159.467 17.152 159.99 17.184C160.523 17.2053 161.014 17.248 161.462 17.312L161.142 19.824C160.768 19.7813 160.379 19.7547 159.974 19.744C159.579 19.7227 159.179 19.712 158.774 19.712C158.528 19.712 158.283 19.7173 158.038 19.728C157.974 20.5067 157.931 21.1733 157.91 21.728C157.899 22.2827 157.894 22.6773 157.894 22.912C157.894 23.4987 157.926 23.92 157.99 24.176C158.064 24.432 158.182 24.56 158.342 24.56C158.523 24.56 158.726 24.5013 158.95 24.384C159.174 24.256 159.392 24.0853 159.606 23.872C159.83 23.6587 160.016 23.4293 160.166 23.184L161.398 25.76C160.342 26.7627 159.211 27.264 158.006 27.264Z" fill="white"/>
<defs>
<filter id="filter0_d_0_1" x="0" y="0" width="58" height="44" filterUnits="userSpaceOnUse" color-interpolation-filters="sRGB">
<feFlood flood-opacity="0" result="BackgroundImageFix"/>
<feColorMatrix in="SourceAlpha" type="matrix" values="0 0 0 0 0 0 0 0 0 0 0 0 0 0 0 0 0 0 127 0" result="hardAlpha"/>
<feOffset dy="4"/>
<feGaussianBlur stdDeviation="2"/>
<feComposite in2="hardAlpha" operator="out"/>
<feColorMatrix type="matrix" values="0 0 0 0 0 0 0 0 0 0 0 0 0 0 0 0 0 0 0.25 0"/>
<feBlend mode="normal" in2="BackgroundImageFix" result="effect1_dropShadow_0_1"/>
<feBlend mode="normal" in="SourceGraphic" in2="effect1_dropShadow_0_1" result="shape"/>
</filter>
</defs>
</svg>
