<?xml version="1.0" standalone="no"?>
<!DOCTYPE svg PUBLIC "-//W3C//DTD SVG 20010904//EN"
 "http://www.w3.org/TR/2001/REC-SVG-20010904/DTD/svg10.dtd">
<svg version="1.0" xmlns="http://www.w3.org/2000/svg"
 width="906.000000pt" height="1280.000000pt" viewBox="0 0 906.000000 1280.000000"
 preserveAspectRatio="xMidYMid meet">
<metadata>
Created by potrace 1.15, written by Peter Selinger 2001-2017
</metadata>
<g transform="translate(0.000000,1280.000000) scale(0.100000,-0.100000)"
fill="#FF9C39" stroke="none">
<path d="M1117 12786 c-113 -42 -199 -147 -255 -311 -71 -211 -49 -511 51
-699 46 -86 126 -169 189 -196 227 -98 443 127 477 498 34 367 -137 701 -367
718 -35 3 -72 -1 -95 -10z"/>
<path d="M2202 12719 c-71 -13 -139 -58 -223 -147 -64 -67 -89 -104 -129 -185
-66 -138 -81 -197 -87 -357 -5 -146 8 -233 47 -310 74 -146 223 -199 365 -131
108 51 212 164 276 299 73 155 108 414 75 555 -48 202 -168 305 -324 276z"/>
<path d="M322 11950 c-84 -18 -145 -71 -189 -165 -26 -56 -28 -68 -27 -185 0
-116 3 -132 36 -227 45 -133 114 -246 212 -349 126 -135 258 -206 386 -207
151 -2 250 92 281 266 22 117 -13 293 -86 437 -141 281 -413 471 -613 430z"/>
<path d="M2865 11750 c-156 -34 -324 -149 -441 -301 -61 -79 -127 -207 -155
-299 -34 -110 -33 -245 2 -320 51 -109 133 -160 259 -160 310 0 658 367 696
735 10 100 -22 210 -80 273 -55 61 -183 94 -281 72z"/>
<path d="M1537 11230 c-150 -27 -358 -182 -549 -409 -209 -248 -351 -527 -365
-715 -8 -101 8 -151 67 -207 52 -51 122 -80 247 -101 91 -15 232 3 498 63 99
22 205 41 235 41 60 0 168 -32 291 -87 199 -90 341 -70 463 67 116 130 130
213 72 418 -93 326 -344 671 -619 851 -103 67 -235 98 -340 79z"/>
<path d="M7125 10765 c-244 -53 -458 -264 -527 -520 -27 -101 -34 -261 -15
-360 32 -168 143 -340 281 -439 63 -45 179 -106 202 -106 17 0 59 -51 93 -111
l31 -56 0 -309 c0 -299 -8 -611 -31 -1219 -6 -159 -16 -470 -23 -690 -11 -369
-14 -404 -33 -447 -12 -25 -30 -51 -41 -57 -11 -6 -89 -10 -183 -10 -219 -1
-293 -20 -415 -106 -357 -255 -310 -842 82 -1039 112 -56 329 -81 439 -51 33
9 76 20 95 24 49 10 150 81 248 173 46 43 98 86 115 94 18 9 39 22 47 29 8 7
29 15 46 18 38 7 51 -5 88 -87 120 -267 389 -424 662 -386 163 22 293 88 402
204 72 77 113 153 143 262 18 67 20 96 16 228 -4 131 -8 161 -31 228 -66 186
-196 332 -359 403 l-63 28 -14 66 c-7 36 -17 102 -21 146 -11 117 -11 829 1
1215 5 184 15 490 20 680 11 347 22 504 45 615 l12 60 59 2 c149 6 273 61 382
170 114 115 168 237 179 408 6 102 -17 218 -63 312 -39 81 -174 213 -258 253
-67 31 -186 59 -256 59 -114 1 -265 -59 -352 -138 -48 -44 -125 -85 -171 -93
-15 -2 -23 11 -41 67 -77 239 -261 416 -492 475 -89 23 -209 25 -299 5z"/>
<path d="M3333 9866 c-180 -86 -295 -384 -263 -682 26 -245 131 -439 276 -510
45 -22 64 -26 116 -22 81 5 131 30 193 93 121 124 185 333 172 569 -8 139 -27
216 -84 335 -50 104 -118 182 -188 216 -23 11 -68 21 -105 22 -53 3 -75 -1
-117 -21z"/>
<path d="M4430 9811 c-86 -28 -194 -114 -265 -211 -49 -67 -101 -176 -131
-276 -22 -75 -27 -109 -28 -219 -2 -192 35 -309 122 -385 126 -111 282 -86
432 69 129 133 197 296 220 522 23 233 -43 414 -173 481 -44 22 -137 32 -177
19z"/>
<path d="M2531 9033 c-192 -68 -240 -369 -107 -658 54 -116 118 -205 211 -294
113 -107 220 -162 328 -169 85 -5 127 6 186 48 88 64 126 168 119 329 -4 87
-11 124 -39 206 -126 364 -461 622 -698 538z"/>
<path d="M5089 8839 c-142 -33 -308 -152 -422 -302 -192 -250 -233 -559 -94
-698 58 -58 102 -74 207 -74 83 1 104 5 166 31 139 60 254 152 354 285 271
360 210 773 -114 768 -34 -1 -77 -5 -97 -10z"/>
<path d="M3750 8316 c-117 -33 -237 -114 -391 -267 -170 -169 -293 -336 -390
-534 -70 -144 -102 -254 -102 -350 1 -115 45 -181 153 -228 162 -70 299 -64
732 32 76 17 151 31 167 31 41 0 178 -44 281 -90 151 -67 253 -74 356 -25 63
30 90 54 152 137 87 116 91 195 21 415 -119 376 -473 788 -748 873 -71 22
-163 25 -231 6z"/>
<path d="M1023 7206 c-122 -40 -219 -167 -276 -364 -19 -67 -22 -99 -21 -242
1 -149 3 -174 28 -255 69 -229 202 -368 351 -369 276 -2 456 440 349 859 -22
87 -86 212 -137 270 -83 93 -197 133 -294 101z"/>
<path d="M2058 7126 c-51 -19 -83 -41 -147 -100 -99 -94 -167 -205 -217 -356
-26 -79 -28 -97 -28 -245 -1 -126 3 -172 16 -214 53 -162 152 -239 298 -229
88 7 157 46 244 139 113 123 181 276 207 465 32 241 -22 429 -149 519 -37 25
-54 30 -115 32 -43 2 -87 -2 -109 -11z"/>
<path d="M164 6347 c-60 -29 -107 -82 -136 -157 -18 -45 -22 -76 -22 -165 0
-130 22 -222 84 -347 54 -107 91 -160 173 -245 249 -259 544 -265 638 -14 106
284 -114 747 -428 903 -76 38 -93 42 -171 45 -76 4 -94 1 -138 -20z"/>
<path d="M2752 6165 c-66 -15 -156 -57 -231 -108 -70 -47 -186 -169 -240 -252
-231 -353 -157 -719 144 -718 270 1 573 271 676 603 30 95 32 231 6 305 -48
139 -191 207 -355 170z"/>
<path d="M1440 5648 c-148 -23 -339 -163 -537 -393 -192 -223 -314 -438 -363
-640 -36 -147 -24 -224 49 -296 38 -39 61 -51 131 -74 168 -53 255 -47 670 46
74 17 158 30 185 30 50 0 194 -46 335 -106 123 -53 266 -44 353 23 48 37 125
135 149 190 36 81 10 255 -67 445 -40 101 -147 275 -233 383 -87 109 -231 245
-326 308 -109 72 -231 102 -346 84z"/>
<path d="M4506 4792 c-19 -23 -78 -78 -133 -120 -54 -43 -505 -399 -1003 -792
-498 -393 -1212 -956 -1588 -1253 -445 -351 -680 -542 -675 -550 8 -14 410
-525 428 -545 9 -10 55 22 226 156 l214 169 3 -928 2 -929 2575 0 2575 0 0
940 0 940 218 -172 c119 -94 222 -175 228 -180 8 -6 83 82 233 271 122 155
221 284 220 288 0 5 -213 175 -472 379 -1882 1479 -2860 2254 -2910 2306 -73
77 -95 80 -141 20z m224 -2387 c96 -24 254 -106 346 -179 252 -199 432 -534
501 -931 26 -152 24 -472 -5 -625 -39 -213 -126 -443 -227 -602 l-37 -58 -779
0 -779 0 -46 71 c-255 394 -319 995 -157 1492 43 130 127 303 198 402 63 89
182 213 256 269 111 83 266 152 397 176 67 13 256 4 332 -15z"/>
</g>
</svg>
